<svg width="24" height="24" viewBox="0 0 24 24" fill="none" xmlns="http://www.w3.org/2000/svg">
<path fill-rule="evenodd" clip-rule="evenodd" d="M12.5949 0.69697C12.1486 0.250702 11.5434 0 10.9123 0H2.37959C1.06538 0 0 1.06538 0 2.37959V10.9123C0 11.5434 0.250702 12.1486 0.69697 12.5949L11.4051 23.3031C12.3344 24.2323 13.8411 24.2323 14.7703 23.3031L23.3031 14.7703C24.2323 13.8411 24.2323 12.3344 23.3031 11.4051L12.5949 0.69697ZM8.32856 6.54387C8.32856 7.52953 7.52953 8.32856 6.54387 8.32856C5.55821 8.32856 4.75918 7.52953 4.75918 6.54387C4.75918 5.55821 5.55821 4.75918 6.54387 4.75918C7.52953 4.75918 8.32856 5.55821 8.32856 6.54387Z" fill="#515153"/>
</svg>
