<?xml version="1.0" encoding="utf-8"?>
<!-- Generator: Adobe Illustrator 19.0.0, SVG Export Plug-In . SVG Version: 6.00 Build 0)  -->
<svg version="1.1" id="레이어_1" xmlns="http://www.w3.org/2000/svg" xmlns:xlink="http://www.w3.org/1999/xlink" x="0px"
	 y="0px" viewBox="0 0 500 200" style="enable-background:new 0 0 500 200;" xml:space="preserve">
<style type="text/css">
	.st0{fill:#3F3939;}
	.st1{fill:#0083CE;}
</style>
<g>
	<path class="st0" d="M330.4,52c40.8,0,81.5,0,122.3,0c0,11.7,0,23.3,0,35.3c-11.8,0-23.5,0-35.5,0c0,20.6,0,40.8,0,61.2
		c-14,0-27.6,0-41.6,0c0-0.9-0.1-1.8-0.1-2.7c0-18.6,0-37.2,0-55.7c0-2.1-0.6-2.8-2.7-2.7c-8.2,0.1-16.5,0-24.7,0.1
		c-1.6,0-2.4-0.5-3.1-2c-4.6-10.7-9.4-21.3-14-31.9C330.8,53,330.6,52.6,330.4,52z"/>
	<path class="st0" d="M119.2,129.6c-11.9,8.1-31.2,9.1-46.2-1.9c-14.8-10.9-20.7-30.9-14.2-48.1c7.1-18.5,25-27.9,41.5-26.7
		c21.6,1.5,34.9,17.8,37.6,31.9c-4.2-8.7-10.7-15.1-19.9-18.3c-9.3-3.2-18.3-2.4-27,2.1c-14.7,7.7-21.3,25.6-15.6,41.2
		C80.6,123.7,97.6,136.9,119.2,129.6z"/>
	<path class="st0" d="M122.4,98.5c0,8-6.4,14.4-14.4,14.5c-8,0.1-14.5-6.6-14.5-14.6c0-8.1,6.5-14.5,14.6-14.4
		C116.1,84.1,122.5,90.6,122.4,98.5z"/>
	<path class="st0" d="M172.9,126.7c-1.7,7.6-3.2,14.6-4.8,21.7c0.7,0.1,1,0.2,1.3,0.2c12.2,0,24.4,0,36.5,0c1.4,0,1.8-0.6,2.1-1.8
		c3.2-11.5,6.3-23,9.8-34.4c2.3-7.4,5.1-14.6,7.7-22c0.3,0,0.6,0,0.8,0c0.4,0.9,0.8,1.8,1.1,2.7c6.7,17.4,12.2,35.2,16.5,53.3
		c0.4,1.7,1,2.2,2.7,2.2c11.6-0.1,23.3,0,34.9,0c0.7,0,1.4-0.1,2.4-0.1c-1-4.4-1.9-8.5-2.8-12.7c-0.2-1.1-0.4-2.4-0.1-3.4
		c4.4-13.5,8.8-26.9,13.3-40.3c0.2-0.6,0.6-1.1,1.1-2.1c0.6,1.4,0.9,2.2,1.3,3c6.8,17.5,12.2,35.4,16.6,53.6c0.4,1.6,1,2.1,2.6,2.1
		c11.8-0.1,23.6,0,35.4,0c0.6,0,1.2-0.1,1.9-0.2c-0.1-0.5-0.1-0.9-0.2-1.3c-2.3-9.3-4.2-18.6-6.8-27.8c-6.7-23-15.9-45-28.4-65.5
		c-0.9-1.5-1.9-2.1-3.7-2.1c-12.5,0.1-25,0.1-37.5,0c-1.9,0-3,0.6-3.8,2.2c-3.7,6.9-7.5,13.8-11.2,20.7c-0.3,0.5-0.6,0.9-1.1,1.6
		c-0.5-1.1-0.9-1.9-1.3-2.6c-3.6-6.6-7.3-13.2-10.8-19.9c-0.8-1.5-1.9-2.1-3.7-2.1c-12.3,0.1-24.7,0.1-37,0c-2.2,0-3.4,0.7-4.6,2.6
		c-9.7,16.1-17.3,33.2-23.5,50.9c-0.7,1.9-1.4,3.7-2.2,5.5L172.9,126.7z"/>
	<path class="st1" d="M178,95.6c-2.2-28.1-20.7-47.3-37.8-55.3c-23.5-11-48.7-6.1-62.2,3.2c29.7-10.8,59,5.1,69,30.5
		c10.1,25.5-0.3,54.8-25.6,67.8c-13.8,7.1-28.2,8-42.8,2.7C64,139.2,53.8,129.1,47.3,115c5.3,23.6,23.1,43.5,47.8,48.9
		c34.2,7.6,59.4-5.5,76.8-35.5c4-8.6,6.3-18.1,6.3-28.2C178.2,98.7,178.1,97.1,178,95.6z"/>
</g>
</svg>
