<svg xmlns="http://www.w3.org/2000/svg" fill="currentColor" viewBox="0 0 22 22"><path fill-rule="evenodd" d="M20.167 11a9.167 9.167 0 1 1-18.334 0 9.167 9.167 0 0 1 18.334 0m-8.661-4.463c.258 0 .466.214.458.472l-.144 4.927a.46.46 0 0 1-.459.445h-.718a.46.46 0 0 1-.458-.445l-.148-4.926a.46.46 0 0 1 .458-.473zm-.504 9.115q-.435 0-.747-.308a1 1 0 0 1-.307-.747 1 1 0 0 1 .307-.738q.312-.308.747-.308.418 0 .734.308a1.01 1.01 0 0 1 .167 1.27 1.14 1.14 0 0 1-.382.382 1 1 0 0 1-.519.14" clip-rule="evenodd"/></svg>