<svg xmlns="http://www.w3.org/2000/svg" fill="currentColor" viewBox="0 0 16 20"><path fill-rule="evenodd" d="M8 .5C4.564.5 1.778 3.336 1.778 6.833v2.68a4.5 4.5 0 0 1-1.282 3.149A1.74 1.74 0 0 0 0 13.88v.79a1.2 1.2 0 0 0 1.19 1.21H4.5c0 .33.007 1.047.385 1.745A3.55 3.55 0 0 0 8 19.5c1.345 0 2.513-.76 3.115-1.874.378-.698.385-1.415.385-1.745h3.31a1.2 1.2 0 0 0 1.19-1.21v-.79a1.74 1.74 0 0 0-.496-1.22 4.5 4.5 0 0 1-1.282-3.149V6.833C14.222 3.336 11.436.5 8 .5m1.722 15.381c0 .3-.021.609-.164.872a1.77 1.77 0 0 1-1.552.938h-.012a1.77 1.77 0 0 1-1.552-.938c-.143-.263-.164-.572-.164-.872z" clip-rule="evenodd"/></svg>