<svg width="16" height="20" viewBox="0 0 16 20" fill="none" xmlns="http://www.w3.org/2000/svg">
<path fill-rule="evenodd" clip-rule="evenodd" d="M8 0.5C4.56356 0.5 1.77778 3.33553 1.77778 6.83333V9.51224C1.77778 10.6935 1.31676 11.8264 0.496124 12.6617C0.178462 12.985 0 13.4235 0 13.8808V14.6707C0 15.3391 0.532364 15.881 1.18908 15.881H4.50044C4.50044 16.2108 4.50708 16.9282 4.88458 17.6258C5.48708 18.7392 6.65502 19.5 8 19.5C9.34498 19.5 10.5129 18.7392 11.1154 17.6258C11.4929 16.9282 11.4996 16.2108 11.4996 15.881H14.8109C15.4676 15.881 16 15.3391 16 14.6707V13.8808C16 13.4235 15.8215 12.985 15.5039 12.6617C14.6833 11.8264 14.2222 10.6935 14.2222 9.51224V6.83333C14.2222 3.33553 11.4364 0.5 8 0.5ZM9.72178 15.881C9.72178 16.1813 9.70062 16.4897 9.55822 16.7528C9.25662 17.3101 8.67476 17.6882 8.00587 17.6905H8H7.99404C7.32524 17.6882 6.74338 17.3101 6.44178 16.7528C6.29938 16.4897 6.27822 16.1813 6.27822 15.881H9.72178Z" fill="#1E6ECF"/>
</svg>
