<svg xmlns="http://www.w3.org/2000/svg" width="44" height="44" fill="currentColor" viewBox="0 0 44 44"><path d="M28.91 12.715a1.681 1.681 0 0 1 2.376 2.377L24.378 22l6.908 6.908a1.681 1.681 0 0 1-2.377 2.377l-6.908-6.908-6.91 6.908q-.06.06-.125.114l-.137.1a1.682 1.682 0 0 1-2.114-2.59L19.624 22l-6.91-6.908a1.681 1.681 0 0 1 2.378-2.377L22 19.624zM13.246 30.754a1 1 0 0 0-.063-.07zm10.066-8.753 7.44 7.44h.002zl7.442-7.44-.001-.002zm-8.824-8.817a1 1 0 0 1 .07.063l7.44 7.44-7.438-7.44a1 1 0 0 0-.072-.065z"/></svg>