<svg xmlns="http://www.w3.org/2000/svg" fill="currentColor" viewBox="0 0 20 24"><path fill-rule="evenodd" d="M2.5 0C1.12 0 0 1.09 0 2.436v20.337c0 1.1 1.377 1.636 2.155.84L4.24 21.48a1.274 1.274 0 0 1 1.647-.14l3.371 2.422a1.28 1.28 0 0 0 1.484 0l3.371-2.422a1.274 1.274 0 0 1 1.647.14l2.085 2.133c.778.796 2.155.26 2.155-.84V2.436C20 1.09 18.88 0 17.5 0zm11.875 8.525c.69 0 1.25-.546 1.25-1.218 0-.673-.56-1.218-1.25-1.218h-8.75c-.69 0-1.25.545-1.25 1.218s.56 1.218 1.25 1.218zm-1.25 4.262c0 .673-.56 1.218-1.25 1.218h-6.25c-.69 0-1.25-.545-1.25-1.218s.56-1.218 1.25-1.218h6.25c.69 0 1.25.545 1.25 1.218" clip-rule="evenodd"/></svg>