<svg width="16" height="16" viewBox="0 0 16 16" fill="none" xmlns="http://www.w3.org/2000/svg">
<path d="M7.99998 0.888889C7.99998 1.37981 7.60201 1.77778 7.11109 1.77778H1.77777L1.77777 14.2222H7.11109C7.60201 14.2222 7.99998 14.6202 7.99998 15.1111C7.99998 15.602 7.60201 16 7.11109 16H1.77777C0.795936 16 0 15.2041 0 14.2222V1.77778C0 0.795938 0.795937 0 1.77777 0H7.11109C7.60201 0 7.99998 0.397969 7.99998 0.888889Z" fill="#1E6ECF"/>
<path d="M10.6667 11.1874L12.9652 8.88897H5.33336C4.84244 8.88897 4.44448 8.491 4.44448 8.00008C4.44448 7.50916 4.84244 7.11119 5.33336 7.11119L12.9652 7.11119L10.6667 4.81269C10.3195 4.46556 10.3195 3.90274 10.6667 3.55561C11.0138 3.20848 11.5766 3.20848 11.9237 3.55561L15.7396 7.37154C15.9063 7.53824 16 7.76433 16 8.00008C16 8.23583 15.9063 8.46192 15.7396 8.62862L11.9238 12.4445C11.5766 12.7916 11.0138 12.7916 10.6667 12.4445C10.3196 12.0974 10.3196 11.5346 10.6667 11.1874Z" fill="#1E6ECF"/>
</svg>
