<svg xmlns="http://www.w3.org/2000/svg" fill="currentColor" viewBox="0 0 20 19"><path fill-rule="evenodd" d="M2.13.75A.917.917 0 1 0 .833 2.046L3.246 4.46C1.744 5.842.764 7.402.278 8.287a1.47 1.47 0 0 0 0 1.426c1.013 1.843 4.173 6.62 9.722 6.62a9.24 9.24 0 0 0 4.146-.974l2.807 2.808a.917.917 0 1 0 1.297-1.297l-2.498-2.498zM1.98 9c.466-.818 1.32-2.114 2.563-3.243L6.548 7.76a3.667 3.667 0 0 0 4.691 4.691l1.52 1.52c-.83.33-1.748.528-2.76.528-2.206 0-3.969-.94-5.346-2.159C3.35 11.19 2.459 9.842 1.98 9" clip-rule="evenodd"/><path d="m13.611 9.639-4.25-4.25a3.667 3.667 0 0 1 4.25 4.25"/><path d="M15.845 11.873A13.8 13.8 0 0 0 18.02 9c-.48-.842-1.37-2.19-2.673-3.341-1.378-1.22-3.14-2.16-5.347-2.16-.788 0-1.52.12-2.198.33L6.375 2.403A9.2 9.2 0 0 1 10 1.667c5.549 0 8.71 4.777 9.722 6.62a1.47 1.47 0 0 1 0 1.426 15.7 15.7 0 0 1-2.58 3.456z"/></svg>