<svg xmlns="http://www.w3.org/2000/svg" fill="currentColor" viewBox="0 0 22 16"><path fill-rule="evenodd" d="M15 8a4 4 0 1 1-8 0 4 4 0 0 1 8 0m-2 0a2 2 0 1 1-4 0 2 2 0 0 1 4 0" clip-rule="evenodd"/><path fill-rule="evenodd" d="M21.606 8.778a1.6 1.6 0 0 0 0-1.556C20.5 5.212 17.053 0 11 0S1.5 5.211.394 7.222a1.6 1.6 0 0 0 0 1.556C1.5 10.788 4.947 16 11 16s9.501-5.211 10.606-7.222M19.749 8c-.523-.919-1.495-2.388-2.916-3.645C15.33 3.025 13.407 2 11 2S6.67 3.025 5.167 4.355C3.747 5.612 2.774 7.08 2.25 8c.523.919 1.495 2.389 2.916 3.645C6.67 12.975 8.593 14 11 14s4.33-1.025 5.833-2.355C18.253 10.39 19.226 8.92 19.75 8" clip-rule="evenodd"/></svg>