<svg width="20" height="20" viewBox="0 0 20 20" fill="none" xmlns="http://www.w3.org/2000/svg">
<path fill-rule="evenodd" clip-rule="evenodd" d="M0 2.22222C0 0.994922 0.994922 0 2.22222 0H17.7778C19.0051 0 20 0.994922 20 2.22222V17.7778C20 19.0051 19.0051 20 17.7778 20H2.22222C0.994922 20 0 19.0051 0 17.7778V2.22222ZM10 16.6667C9.38633 16.6667 8.88889 16.1692 8.88889 15.5556V5.55556C8.88889 4.94191 9.38633 4.44444 10 4.44444C10.6137 4.44444 11.1111 4.94191 11.1111 5.55556V15.5556C11.1111 16.1692 10.6137 16.6667 10 16.6667ZM3.88889 15.5556C3.88889 16.1692 4.38636 16.6667 5 16.6667C5.61366 16.6667 6.11111 16.1692 6.11111 15.5556V8.88889C6.11111 8.27522 5.61366 7.77778 5 7.77778C4.38636 7.77778 3.88889 8.27522 3.88889 8.88889V15.5556ZM15 16.6667C14.3863 16.6667 13.8889 16.1692 13.8889 15.5556V11.1111C13.8889 10.4974 14.3863 10 15 10C15.6137 10 16.1111 10.4974 16.1111 11.1111V15.5556C16.1111 16.1692 15.6137 16.6667 15 16.6667Z" fill="#777777"/>
</svg>
