<svg xmlns="http://www.w3.org/2000/svg" width="20" height="20" fill="currentColor" viewBox="0 0 20 20"><path fill-rule="evenodd" d="M0 2.222C0 .995.995 0 2.222 0h15.556C19.005 0 20 .995 20 2.222v15.556A2.22 2.22 0 0 1 17.778 20H2.222A2.22 2.22 0 0 1 0 17.778zm10 14.445a1.11 1.11 0 0 1-1.111-1.111v-10a1.111 1.111 0 1 1 2.222 0v10A1.11 1.11 0 0 1 10 16.666m-6.111-1.111a1.111 1.111 0 0 0 2.222 0V8.889a1.111 1.111 0 1 0-2.222 0zM15 16.666a1.11 1.11 0 0 1-1.111-1.11V11.11a1.111 1.111 0 1 1 2.222 0v4.445A1.11 1.11 0 0 1 15 16.665" clip-rule="evenodd"/></svg>