<svg xmlns="http://www.w3.org/2000/svg" width="24" height="24" fill="currentColor" viewBox="0 0 24 24"><path fill="currentColor" d="M13.061 5.283a1 1 0 1 1-1.414-1.414l.354-.354a6 6 0 0 1 8.485 8.486l-2.475 2.474a6 6 0 0 1-8.485 0 1 1 0 0 1 1.414-1.414 4 4 0 0 0 5.657 0l2.474-2.475a4 4 0 0 0-5.656-5.657z"/><path fill="currentColor" d="m12.354 20.132-.353.354A6 6 0 1 1 3.515 12L5.99 9.526a6 6 0 0 1 8.486 0 1 1 0 1 1-1.415 1.414 4 4 0 0 0-5.657 0L4.93 13.415a4 4 0 1 0 5.657 5.657l.354-.354a1 1 0 0 1 1.414 1.414"/></svg>