<svg xmlns="http://www.w3.org/2000/svg" xml:space="preserve" id="레이어_1" x="0" y="0" viewBox="0 0 500 200"><style>.st0{fill:#f5f6f8}</style><path d="M330.4 52h122.3v35.3h-35.5v61.2h-41.6c0-.9-.1-1.8-.1-2.7V90.1c0-2.1-.6-2.8-2.7-2.7-8.2.1-16.5 0-24.7.1-1.6 0-2.4-.5-3.1-2-4.6-10.7-9.4-21.3-14-31.9-.2-.6-.4-1-.6-1.6m-211.2 77.6c-11.9 8.1-31.2 9.1-46.2-1.9-14.8-10.9-20.7-30.9-14.2-48.1 7.1-18.5 25-27.9 41.5-26.7 21.6 1.5 34.9 17.8 37.6 31.9-4.2-8.7-10.7-15.1-19.9-18.3-9.3-3.2-18.3-2.4-27 2.1-14.7 7.7-21.3 25.6-15.6 41.2 5.2 13.9 22.2 27.1 43.8 19.8" class="st0"/><path d="M122.4 98.5c0 8-6.4 14.4-14.4 14.5s-14.5-6.6-14.5-14.6c0-8.1 6.5-14.5 14.6-14.4 8 .1 14.4 6.6 14.3 14.5m50.5 28.2c-1.7 7.6-3.2 14.6-4.8 21.7.7.1 1 .2 1.3.2h36.5c1.4 0 1.8-.6 2.1-1.8 3.2-11.5 6.3-23 9.8-34.4 2.3-7.4 5.1-14.6 7.7-22h.8c.4.9.8 1.8 1.1 2.7 6.7 17.4 12.2 35.2 16.5 53.3.4 1.7 1 2.2 2.7 2.2 11.6-.1 23.3 0 34.9 0 .7 0 1.4-.1 2.4-.1-1-4.4-1.9-8.5-2.8-12.7-.2-1.1-.4-2.4-.1-3.4 4.4-13.5 8.8-26.9 13.3-40.3.2-.6.6-1.1 1.1-2.1.6 1.4.9 2.2 1.3 3 6.8 17.5 12.2 35.4 16.6 53.6.4 1.6 1 2.1 2.6 2.1 11.8-.1 23.6 0 35.4 0 .6 0 1.2-.1 1.9-.2-.1-.5-.1-.9-.2-1.3-2.3-9.3-4.2-18.6-6.8-27.8-6.7-23-15.9-45-28.4-65.5-.9-1.5-1.9-2.1-3.7-2.1q-18.75.15-37.5 0c-1.9 0-3 .6-3.8 2.2-3.7 6.9-7.5 13.8-11.2 20.7-.3.5-.6.9-1.1 1.6-.5-1.1-.9-1.9-1.3-2.6-3.6-6.6-7.3-13.2-10.8-19.9-.8-1.5-1.9-2.1-3.7-2.1-12.3.1-24.7.1-37 0-2.2 0-3.4.7-4.6 2.6-9.7 16.1-17.3 33.2-23.5 50.9-.7 1.9-1.4 3.7-2.2 5.5z" class="st0"/><path d="M178 95.6c-2.2-28.1-20.7-47.3-37.8-55.3-23.5-11-48.7-6.1-62.2 3.2 29.7-10.8 59 5.1 69 30.5 10.1 25.5-.3 54.8-25.6 67.8-13.8 7.1-28.2 8-42.8 2.7S53.8 129.1 47.3 115c5.3 23.6 23.1 43.5 47.8 48.9 34.2 7.6 59.4-5.5 76.8-35.5 4-8.6 6.3-18.1 6.3-28.2 0-1.5-.1-3.1-.2-4.6" style="fill:#0083ce"/></svg>