<svg width="24" height="24" viewBox="0 0 24 24" fill="none" xmlns="http://www.w3.org/2000/svg">
<path fill-rule="evenodd" clip-rule="evenodd" d="M6 0C5.33726 0 4.8 0.537264 4.8 1.2V6H3.6C1.61178 6 0 7.61178 0 9.6V18C0 19.3255 1.07452 20.4 2.4 20.4H4.8V22.8C4.8 23.4628 5.33726 24 6 24H18C18.6628 24 19.2 23.4628 19.2 22.8V20.4H21.6C22.9255 20.4 24 19.3255 24 18V9.6C24 7.61178 22.3883 6 20.4 6H19.2V1.2C19.2 0.537264 18.6628 0 18 0H6ZM16.8 6V2.4H7.2V6H16.8ZM16.8 17.4H7.2V21.6H16.8V17.4ZM18.6 12.9C19.4285 12.9 20.1 12.2285 20.1 11.4C20.1 10.5715 19.4285 9.9 18.6 9.9C17.7715 9.9 17.1 10.5715 17.1 11.4C17.1 12.2285 17.7715 12.9 18.6 12.9Z" fill="#515153"/>
</svg>
