<svg width="18" height="18" viewBox="0 0 18 18" fill="none" xmlns="http://www.w3.org/2000/svg">
<path fill-rule="evenodd" clip-rule="evenodd" d="M7.70188 1C4.00052 1 1 4.00052 1 7.70186C1 11.4032 4.00052 14.4037 7.70188 14.4037C9.26806 14.4037 10.7097 13.8657 11.8505 12.9656L15.654 16.7691C15.9619 17.077 16.4611 17.077 16.7691 16.7691C17.077 16.4612 17.077 15.9619 16.7691 15.654L12.9655 11.8505C13.8657 10.7097 14.4037 9.26812 14.4037 7.70186C14.4037 4.00052 11.4032 1 7.70188 1ZM2.5769 7.70186C2.5769 4.87143 4.87142 2.57691 7.70188 2.57691C10.5323 2.57691 12.8268 4.87143 12.8268 7.70186C12.8268 9.11729 12.254 10.3974 11.3257 11.3258C10.3974 12.2541 9.11731 12.8268 7.70188 12.8268C4.87142 12.8268 2.5769 10.5323 2.5769 7.70186Z" fill="#1E6ECF" stroke="#1E6ECF" stroke-width="0.2"/>
</svg>
