<svg xmlns="http://www.w3.org/2000/svg" width="76" height="76" fill="currentColor" viewBox="0 0 76 76"><path fill="currentColor" d="M54.875 26.75a2.81 2.81 0 0 1 0 3.977L36.24 49.364a2.81 2.81 0 0 1-3.977 0L23 40.102a2.812 2.812 0 1 1 3.978-3.977l7.272 7.272L50.898 26.75a2.813 2.813 0 0 1 3.977 0"/><path fill="currentColor" fill-rule="evenodd" d="M75.5 38c0 20.71-16.79 37.5-37.5 37.5S.5 58.71.5 38 17.29.5 38 .5 75.5 17.29 75.5 38m-5.625 0c0 17.604-14.271 31.875-31.875 31.875S6.125 55.604 6.125 38 20.395 6.125 38 6.125c17.604 0 31.875 14.27 31.875 31.875" clip-rule="evenodd"/></svg>