<svg xmlns="http://www.w3.org/2000/svg" fill="currentColor" viewBox="0 0 24 24"><path d="m16.781 7.579-3.447-3.266V16.42c0 .698-.598 1.263-1.334 1.263s-1.333-.565-1.333-1.263V4.313L7.219 7.579a1.386 1.386 0 0 1-1.886 0 1.214 1.214 0 0 1 0-1.786L11.057.37c.25-.237.59-.37.943-.37.354 0 .693.133.943.37l5.724 5.423c.52.493.52 1.293 0 1.786a1.386 1.386 0 0 1-1.886 0"/><path d="M1.333 15.158c.737 0 1.334.565 1.334 1.263v5.053h18.666V16.42c0-.698.597-1.263 1.334-1.263.736 0 1.333.565 1.333 1.263v5.053C24 22.869 22.806 24 21.333 24H2.667C1.194 24 0 22.869 0 21.474V16.42c0-.698.597-1.263 1.333-1.263"/></svg>