<svg xmlns="http://www.w3.org/2000/svg"><symbol id="upload" viewBox="0 0 24 24" fill="none" xmlns="http://www.w3.org/2000/svg">
<path d="M16.7811 7.5789L13.3335 4.31269V16.4209C13.3335 17.1186 12.7365 17.6841 12.0001 17.6841C11.2637 17.6841 10.6668 17.1186 10.6668 16.4209V4.31269L7.21904 7.57897C6.69835 8.07226 5.85412 8.07226 5.33343 7.57897C5.26834 7.51731 5.21139 7.45085 5.16258 7.38081C4.82087 6.89052 4.87782 6.22423 5.33343 5.7926L11.0573 0.369978C11.3073 0.133086 11.6465 0 12.0001 0C12.3537 0 12.6929 0.133086 12.9429 0.369978L18.6668 5.79252C19.1875 6.28582 19.1875 7.0856 18.6668 7.5789C18.146 8.07218 17.3019 8.07218 16.7811 7.5789Z" fill="#515153"></path>
<path d="M1.33333 15.1579C2.06972 15.1579 2.66666 15.7234 2.66666 16.4211V21.4737H21.3333V16.4211C21.3333 15.7234 21.9303 15.1579 22.6667 15.1579C23.4031 15.1579 24 15.7234 24 16.4211V21.4737C24 22.869 22.8061 24 21.3333 24H2.66666C1.19391 24 0 22.869 0 21.4737V16.4211C0 15.7234 0.596959 15.1579 1.33333 15.1579Z" fill="#515153"></path>
</symbol><symbol id="spinner" viewBox="0 0 20 21" fill="none" xmlns="http://www.w3.org/2000/svg">
<path d="M9.30275 18.4696C10.8385 18.6039 12.3803 18.2917 13.7428 17.5705C15.1053 16.8492 16.2304 15.7497 16.9827 14.4041C17.735 13.0585 18.0825 11.5242 17.9835 9.98583C17.8844 8.44742 17.3429 6.97039 16.4242 5.73244C15.5055 4.4945 14.2487 3.54836 12.8049 3.00785C11.3612 2.46733 9.79202 2.35547 8.28621 2.68572C6.78039 3.01597 5.40207 3.77426 4.31704 4.86937C3.23202 5.96448 2.48651 7.34976 2.17021 8.85856" stroke="#2D4A75" stroke-width="4"></path>
</symbol><symbol id="service" viewBox="0 0 24 24" fill="none" xmlns="http://www.w3.org/2000/svg">
<path d="M13.9346 9.67314C13.9742 9.87107 14.1289 10.0258 14.3269 10.0654L16.2376 10.4475C16.4015 10.4803 16.571 10.429 16.6892 10.3108L20.7351 6.26491C20.9742 6.02578 21.3768 6.08868 21.5023 6.4027C21.8234 7.2058 22 8.08227 22 9C22 12.866 18.866 16 15 16C13.9729 16 12.9974 15.7788 12.1186 15.3814L5.80025 21.6998C5.608 21.892 5.34726 22 5.07538 22C3.37689 22 2 20.6231 2 18.9246C2 18.6527 2.108 18.392 2.30025 18.1997L8.61863 11.8814C8.22123 11.0026 8 10.0271 8 9C8 5.13401 11.134 2 15 2C15.9177 2 16.7942 2.17661 17.5973 2.49769C17.9113 2.62323 17.9742 3.02578 17.7351 3.26491L13.6892 7.31079C13.571 7.429 13.5197 7.59847 13.5525 7.7624L13.9346 9.67314Z" fill="#777777"></path>
</symbol><symbol id="search" viewBox="0 0 18 18" fill="none" xmlns="http://www.w3.org/2000/svg">
<path fill-rule="evenodd" clip-rule="evenodd" d="M7.70188 1C4.00052 1 1 4.00052 1 7.70186C1 11.4032 4.00052 14.4037 7.70188 14.4037C9.26806 14.4037 10.7097 13.8657 11.8505 12.9656L15.654 16.7691C15.9619 17.077 16.4611 17.077 16.7691 16.7691C17.077 16.4612 17.077 15.9619 16.7691 15.654L12.9655 11.8505C13.8657 10.7097 14.4037 9.26812 14.4037 7.70186C14.4037 4.00052 11.4032 1 7.70188 1ZM2.5769 7.70186C2.5769 4.87143 4.87142 2.57691 7.70188 2.57691C10.5323 2.57691 12.8268 4.87143 12.8268 7.70186C12.8268 9.11729 12.254 10.3974 11.3257 11.3258C10.3974 12.2541 9.11731 12.8268 7.70188 12.8268C4.87142 12.8268 2.5769 10.5323 2.5769 7.70186Z" fill="#1E6ECF" stroke="#1E6ECF" stroke-width="0.2"></path>
</symbol><symbol id="product" viewBox="0 0 19 19" fill="none" xmlns="http://www.w3.org/2000/svg">
<path d="M10.0606 6.06044C9.47486 5.47465 9.47486 4.52491 10.0606 3.93912L12.9393 1.06043C13.5251 0.474647 14.4749 0.474647 15.0607 1.06043L17.9393 3.93912C18.5251 4.52491 18.5251 5.47465 17.9393 6.06044L15.0607 8.93913C14.4749 9.52491 13.5251 9.52491 12.9393 8.93913L10.0606 6.06044Z" fill="#777777"></path>
<path d="M2 0.999779C0.895431 0.999779 0 1.89521 0 2.99978V6.99978C0 8.10435 0.895431 8.99978 2 8.99978H6C7.10457 8.99978 8 8.10435 8 6.99978V2.99978C8 1.89521 7.10457 0.999779 6 0.999779H2Z" fill="#777777"></path>
<path d="M0 12.9998C0 11.8952 0.895431 10.9998 2 10.9998H6C7.10457 10.9998 8 11.8952 8 12.9998V16.9998C8 18.1044 7.10457 18.9998 6 18.9998H2C0.895431 18.9998 0 18.1044 0 16.9998V12.9998Z" fill="#777777"></path>
<path d="M10 12.9998C10 11.8952 10.8954 10.9998 12 10.9998H16C17.1046 10.9998 18 11.8952 18 12.9998V16.9998C18 18.1044 17.1046 18.9998 16 18.9998H12C10.8954 18.9998 10 18.1044 10 16.9998V12.9998Z" fill="#777777"></path>
</symbol><symbol id="print" viewBox="0 0 24 24" fill="none" xmlns="http://www.w3.org/2000/svg">
<path fill-rule="evenodd" clip-rule="evenodd" d="M6 0C5.33726 0 4.8 0.537264 4.8 1.2V6H3.6C1.61178 6 0 7.61178 0 9.6V18C0 19.3255 1.07452 20.4 2.4 20.4H4.8V22.8C4.8 23.4628 5.33726 24 6 24H18C18.6628 24 19.2 23.4628 19.2 22.8V20.4H21.6C22.9255 20.4 24 19.3255 24 18V9.6C24 7.61178 22.3883 6 20.4 6H19.2V1.2C19.2 0.537264 18.6628 0 18 0H6ZM16.8 6V2.4H7.2V6H16.8ZM16.8 17.4H7.2V21.6H16.8V17.4ZM18.6 12.9C19.4285 12.9 20.1 12.2285 20.1 11.4C20.1 10.5715 19.4285 9.9 18.6 9.9C17.7715 9.9 17.1 10.5715 17.1 11.4C17.1 12.2285 17.7715 12.9 18.6 12.9Z" fill="#515153"></path>
</symbol><symbol id="plus" viewBox="0 0 20 20" fill="none" xmlns="http://www.w3.org/2000/svg">
<path d="M18 9.99555L2 9.99555M9.99566 2V18" stroke="#D9D9D9" stroke-width="2.5" stroke-linecap="round"></path>
</symbol><symbol id="order" viewBox="0 0 24 24" fill="none" xmlns="http://www.w3.org/2000/svg">
<path fill-rule="evenodd" clip-rule="evenodd" d="M20 7.82843C20 7.29799 19.7893 6.78929 19.4142 6.41421L15.5858 2.58579C15.2107 2.21071 14.702 2 14.1716 2H6C4.89543 2 4 2.89543 4 4V20C4 21.1045 4.89543 22 6 22H18C19.1046 22 20 21.1045 20 20V7.82843ZM15.5 11C16.0523 11 16.5 10.5523 16.5 10C16.5 9.44772 16.0523 9 15.5 9H8.5C7.94772 9 7.5 9.44772 7.5 10C7.5 10.5523 7.94772 11 8.5 11H15.5ZM8.5 15.5C7.94772 15.5 7.5 15.0523 7.5 14.5C7.5 13.9477 7.94772 13.5 8.5 13.5H13.5C14.0523 13.5 14.5 13.9477 14.5 14.5C14.5 15.0523 14.0523 15.5 13.5 15.5H8.5Z" fill="#777777"></path>
</symbol><symbol id="message" viewBox="0 0 18 14" fill="none" xmlns="http://www.w3.org/2000/svg">
<path d="M8.1 8.31871L0 3.77206V12.25C0 13.2165 0.805887 14 1.8 14H16.2C17.1941 14 18 13.2165 18 12.25V3.77205L9.9 8.31871C9.34308 8.63126 8.65692 8.63126 8.1 8.31871Z" fill="#1E6ECF"></path>
<path d="M9 6.80313L0 1.75134V1.75C0 0.783502 0.805887 0 1.8 0H16.2C17.1941 0 18 0.783502 18 1.75V1.75133L9 6.80313Z" fill="#1E6ECF"></path>
</symbol><symbol id="logo" viewBox="0 0 500 200" xmlns="http://www.w3.org/2000/svg">
<style type="text/css">
	.st0{fill:#3F3939;}
	.st1{fill:#0083CE;}
</style>
<g>
	<path class="st0" d="M330.4,52c40.8,0,81.5,0,122.3,0c0,11.7,0,23.3,0,35.3c-11.8,0-23.5,0-35.5,0c0,20.6,0,40.8,0,61.2
		c-14,0-27.6,0-41.6,0c0-0.9-0.1-1.8-0.1-2.7c0-18.6,0-37.2,0-55.7c0-2.1-0.6-2.8-2.7-2.7c-8.2,0.1-16.5,0-24.7,0.1
		c-1.6,0-2.4-0.5-3.1-2c-4.6-10.7-9.4-21.3-14-31.9C330.8,53,330.6,52.6,330.4,52z"></path>
	<path class="st0" d="M119.2,129.6c-11.9,8.1-31.2,9.1-46.2-1.9c-14.8-10.9-20.7-30.9-14.2-48.1c7.1-18.5,25-27.9,41.5-26.7
		c21.6,1.5,34.9,17.8,37.6,31.9c-4.2-8.7-10.7-15.1-19.9-18.3c-9.3-3.2-18.3-2.4-27,2.1c-14.7,7.7-21.3,25.6-15.6,41.2
		C80.6,123.7,97.6,136.9,119.2,129.6z"></path>
	<path class="st0" d="M122.4,98.5c0,8-6.4,14.4-14.4,14.5c-8,0.1-14.5-6.6-14.5-14.6c0-8.1,6.5-14.5,14.6-14.4
		C116.1,84.1,122.5,90.6,122.4,98.5z"></path>
	<path class="st0" d="M172.9,126.7c-1.7,7.6-3.2,14.6-4.8,21.7c0.7,0.1,1,0.2,1.3,0.2c12.2,0,24.4,0,36.5,0c1.4,0,1.8-0.6,2.1-1.8
		c3.2-11.5,6.3-23,9.8-34.4c2.3-7.4,5.1-14.6,7.7-22c0.3,0,0.6,0,0.8,0c0.4,0.9,0.8,1.8,1.1,2.7c6.7,17.4,12.2,35.2,16.5,53.3
		c0.4,1.7,1,2.2,2.7,2.2c11.6-0.1,23.3,0,34.9,0c0.7,0,1.4-0.1,2.4-0.1c-1-4.4-1.9-8.5-2.8-12.7c-0.2-1.1-0.4-2.4-0.1-3.4
		c4.4-13.5,8.8-26.9,13.3-40.3c0.2-0.6,0.6-1.1,1.1-2.1c0.6,1.4,0.9,2.2,1.3,3c6.8,17.5,12.2,35.4,16.6,53.6c0.4,1.6,1,2.1,2.6,2.1
		c11.8-0.1,23.6,0,35.4,0c0.6,0,1.2-0.1,1.9-0.2c-0.1-0.5-0.1-0.9-0.2-1.3c-2.3-9.3-4.2-18.6-6.8-27.8c-6.7-23-15.9-45-28.4-65.5
		c-0.9-1.5-1.9-2.1-3.7-2.1c-12.5,0.1-25,0.1-37.5,0c-1.9,0-3,0.6-3.8,2.2c-3.7,6.9-7.5,13.8-11.2,20.7c-0.3,0.5-0.6,0.9-1.1,1.6
		c-0.5-1.1-0.9-1.9-1.3-2.6c-3.6-6.6-7.3-13.2-10.8-19.9c-0.8-1.5-1.9-2.1-3.7-2.1c-12.3,0.1-24.7,0.1-37,0c-2.2,0-3.4,0.7-4.6,2.6
		c-9.7,16.1-17.3,33.2-23.5,50.9c-0.7,1.9-1.4,3.7-2.2,5.5L172.9,126.7z"></path>
	<path class="st1" d="M178,95.6c-2.2-28.1-20.7-47.3-37.8-55.3c-23.5-11-48.7-6.1-62.2,3.2c29.7-10.8,59,5.1,69,30.5
		c10.1,25.5-0.3,54.8-25.6,67.8c-13.8,7.1-28.2,8-42.8,2.7C64,139.2,53.8,129.1,47.3,115c5.3,23.6,23.1,43.5,47.8,48.9
		c34.2,7.6,59.4-5.5,76.8-35.5c4-8.6,6.3-18.1,6.3-28.2C178.2,98.7,178.1,97.1,178,95.6z"></path>
</g>
</symbol><symbol id="logo-dark" viewBox="0 0 500 200" xmlns="http://www.w3.org/2000/svg">
<style type="text/css">
	.st0{fill:#F5F6F8;}
	.st1{fill:#0083CE;}
</style>
<path class="st0" d="M330.4,52c40.8,0,81.5,0,122.3,0c0,11.7,0,23.3,0,35.3c-11.8,0-23.5,0-35.5,0c0,20.6,0,40.8,0,61.2
	c-14,0-27.6,0-41.6,0c0-0.9-0.1-1.8-0.1-2.7c0-18.6,0-37.2,0-55.7c0-2.1-0.6-2.8-2.7-2.7c-8.2,0.1-16.5,0-24.7,0.1
	c-1.6,0-2.4-0.5-3.1-2c-4.6-10.7-9.4-21.3-14-31.9C330.8,53,330.6,52.6,330.4,52z"></path>
<path class="st0" d="M119.2,129.6c-11.9,8.1-31.2,9.1-46.2-1.9c-14.8-10.9-20.7-30.9-14.2-48.1c7.1-18.5,25-27.9,41.5-26.7
	c21.6,1.5,34.9,17.8,37.6,31.9c-4.2-8.7-10.7-15.1-19.9-18.3c-9.3-3.2-18.3-2.4-27,2.1c-14.7,7.7-21.3,25.6-15.6,41.2
	C80.6,123.7,97.6,136.9,119.2,129.6z"></path>
<path class="st0" d="M122.4,98.5c0,8-6.4,14.4-14.4,14.5c-8,0.1-14.5-6.6-14.5-14.6c0-8.1,6.5-14.5,14.6-14.4
	C116.1,84.1,122.5,90.6,122.4,98.5z"></path>
<path class="st0" d="M172.9,126.7c-1.7,7.6-3.2,14.6-4.8,21.7c0.7,0.1,1,0.2,1.3,0.2c12.2,0,24.4,0,36.5,0c1.4,0,1.8-0.6,2.1-1.8
	c3.2-11.5,6.3-23,9.8-34.4c2.3-7.4,5.1-14.6,7.7-22c0.3,0,0.6,0,0.8,0c0.4,0.9,0.8,1.8,1.1,2.7c6.7,17.4,12.2,35.2,16.5,53.3
	c0.4,1.7,1,2.2,2.7,2.2c11.6-0.1,23.3,0,34.9,0c0.7,0,1.4-0.1,2.4-0.1c-1-4.4-1.9-8.5-2.8-12.7c-0.2-1.1-0.4-2.4-0.1-3.4
	c4.4-13.5,8.8-26.9,13.3-40.3c0.2-0.6,0.6-1.1,1.1-2.1c0.6,1.4,0.9,2.2,1.3,3c6.8,17.5,12.2,35.4,16.6,53.6c0.4,1.6,1,2.1,2.6,2.1
	c11.8-0.1,23.6,0,35.4,0c0.6,0,1.2-0.1,1.9-0.2c-0.1-0.5-0.1-0.9-0.2-1.3c-2.3-9.3-4.2-18.6-6.8-27.8c-6.7-23-15.9-45-28.4-65.5
	c-0.9-1.5-1.9-2.1-3.7-2.1c-12.5,0.1-25,0.1-37.5,0c-1.9,0-3,0.6-3.8,2.2c-3.7,6.9-7.5,13.8-11.2,20.7c-0.3,0.5-0.6,0.9-1.1,1.6
	c-0.5-1.1-0.9-1.9-1.3-2.6c-3.6-6.6-7.3-13.2-10.8-19.9c-0.8-1.5-1.9-2.1-3.7-2.1c-12.3,0.1-24.7,0.1-37,0c-2.2,0-3.4,0.7-4.6,2.6
	c-9.7,16.1-17.3,33.2-23.5,50.9c-0.7,1.9-1.4,3.7-2.2,5.5L172.9,126.7z"></path>
<path class="st1" d="M178,95.6c-2.2-28.1-20.7-47.3-37.8-55.3c-23.5-11-48.7-6.1-62.2,3.2c29.7-10.8,59,5.1,69,30.5
	c10.1,25.5-0.3,54.8-25.6,67.8c-13.8,7.1-28.2,8-42.8,2.7C64,139.2,53.8,129.1,47.3,115c5.3,23.6,23.1,43.5,47.8,48.9
	c34.2,7.6,59.4-5.5,76.8-35.5c4-8.6,6.3-18.1,6.3-28.2C178.2,98.7,178.1,97.1,178,95.6z"></path>
</symbol><symbol id="label" viewBox="0 0 24 24" fill="none" xmlns="http://www.w3.org/2000/svg">
<path fill-rule="evenodd" clip-rule="evenodd" d="M12.5949 0.69697C12.1486 0.250702 11.5434 0 10.9123 0H2.37959C1.06538 0 0 1.06538 0 2.37959V10.9123C0 11.5434 0.250702 12.1486 0.69697 12.5949L11.4051 23.3031C12.3344 24.2323 13.8411 24.2323 14.7703 23.3031L23.3031 14.7703C24.2323 13.8411 24.2323 12.3344 23.3031 11.4051L12.5949 0.69697ZM8.32856 6.54387C8.32856 7.52953 7.52953 8.32856 6.54387 8.32856C5.55821 8.32856 4.75918 7.52953 4.75918 6.54387C4.75918 5.55821 5.55821 4.75918 6.54387 4.75918C7.52953 4.75918 8.32856 5.55821 8.32856 6.54387Z" fill="#515153"></path>
</symbol><symbol id="eye" viewBox="0 0 22 16" fill="none" xmlns="http://www.w3.org/2000/svg">
<path fill-rule="evenodd" clip-rule="evenodd" d="M15.0001 8C15.0001 10.2091 13.2092 12 11.0001 12C8.79097 12 7.0001 10.2091 7.0001 8C7.0001 5.79086 8.79097 4 11.0001 4C13.2092 4 15.0001 5.79086 15.0001 8ZM13.0001 8C13.0001 9.1046 12.1047 10 11.0001 10C9.8955 10 9.0001 9.1046 9.0001 8C9.0001 6.8954 9.8955 6 11.0001 6C12.1047 6 13.0001 6.8954 13.0001 8Z" fill="#A9A9A9"></path>
<path fill-rule="evenodd" clip-rule="evenodd" d="M21.6059 8.7781C21.8745 8.2893 21.8745 7.7107 21.6059 7.2219C20.5011 5.21142 17.0534 0 11.0001 0C4.94677 0 1.49915 5.21141 0.394351 7.2219C0.125711 7.7107 0.125711 8.2893 0.394351 8.7781C1.49915 10.7886 4.94677 16 11.0001 16C17.0534 16 20.5011 10.7886 21.6059 8.7781ZM19.7495 8C19.2262 7.0814 18.2538 5.61152 16.8334 4.35493C15.3304 3.02516 13.4072 2 11.0001 2C8.59298 2 6.66981 3.02516 5.16677 4.35493C3.74644 5.61152 2.77399 7.0814 2.25071 8C2.77399 8.9186 3.74644 10.3885 5.16677 11.6451C6.66981 12.9748 8.59298 14 11.0001 14C13.4072 14 15.3304 12.9748 16.8334 11.6451C18.2538 10.3885 19.2262 8.9186 19.7495 8Z" fill="#A9A9A9"></path>
</symbol><symbol id="eye-off" viewBox="0 0 20 19" fill="none" xmlns="http://www.w3.org/2000/svg">
<path fill-rule="evenodd" clip-rule="evenodd" d="M2.12958 0.749935C1.7716 0.391949 1.1912 0.391949 0.833222 0.749935C0.475246 1.10791 0.475246 1.68832 0.833222 2.04629L3.24584 4.45891C1.74432 5.84245 0.763904 7.40232 0.277952 8.28663C0.0316984 8.73479 0.0316984 9.26508 0.277952 9.71324C1.29068 11.5561 4.451 16.3333 9.99989 16.3333C11.5716 16.3333 12.9516 15.95 14.1456 15.3587L16.9535 18.1666C17.3115 18.5246 17.8919 18.5246 18.2499 18.1666C18.6078 17.8086 18.6078 17.2283 18.2499 16.8702L15.7515 14.3719L2.12958 0.749935ZM1.97961 8.99989C2.44576 8.18158 3.30074 6.8861 4.54347 5.75654L6.54784 7.76092C6.40891 8.14794 6.33322 8.56511 6.33322 8.99989C6.33322 11.025 7.97484 12.6666 9.99989 12.6666C10.4348 12.6666 10.8518 12.5909 11.2389 12.452L12.7587 13.9718C11.9285 14.3027 11.0107 14.5 9.99989 14.5C7.79335 14.5 6.03046 13.5602 4.65266 12.3412C3.3507 11.1893 2.45929 9.84203 1.97961 8.99989Z" fill="#555555"></path>
<path d="M13.6111 9.63872L9.36115 5.38872C9.56859 5.35228 9.782 5.33328 9.99989 5.33328C12.0249 5.33328 13.6666 6.9749 13.6666 8.9999C13.6666 9.21779 13.6476 9.43128 13.6111 9.63872Z" fill="#555555"></path>
<path d="M15.8451 11.8726C16.879 10.8397 17.6043 9.72991 18.0202 8.99988C17.5405 8.15783 16.6491 6.81049 15.3471 5.65861C13.9693 4.43965 12.2064 3.49993 9.99989 3.49993C9.21156 3.49993 8.47988 3.61987 7.8021 3.82965L6.37459 2.40213C7.44429 1.94864 8.65157 1.66658 9.99989 1.66658C15.5488 1.66658 18.7091 6.44372 19.7218 8.28662C19.9681 8.73478 19.9681 9.26507 19.7218 9.71323C19.279 10.5191 18.4256 11.8858 17.1415 13.169L15.8451 11.8726Z" fill="#555555"></path>
</symbol><symbol id="exit" viewBox="0 0 16 16" fill="none" xmlns="http://www.w3.org/2000/svg">
<path d="M7.99998 0.888889C7.99998 1.37981 7.60201 1.77778 7.11109 1.77778H1.77777L1.77777 14.2222H7.11109C7.60201 14.2222 7.99998 14.6202 7.99998 15.1111C7.99998 15.602 7.60201 16 7.11109 16H1.77777C0.795936 16 0 15.2041 0 14.2222V1.77778C0 0.795938 0.795937 0 1.77777 0H7.11109C7.60201 0 7.99998 0.397969 7.99998 0.888889Z" fill="#1E6ECF"></path>
<path d="M10.6667 11.1874L12.9652 8.88897H5.33336C4.84244 8.88897 4.44448 8.491 4.44448 8.00008C4.44448 7.50916 4.84244 7.11119 5.33336 7.11119L12.9652 7.11119L10.6667 4.81269C10.3195 4.46556 10.3195 3.90274 10.6667 3.55561C11.0138 3.20848 11.5766 3.20848 11.9237 3.55561L15.7396 7.37154C15.9063 7.53824 16 7.76433 16 8.00008C16 8.23583 15.9063 8.46192 15.7396 8.62862L11.9238 12.4445C11.5766 12.7916 11.0138 12.7916 10.6667 12.4445C10.3196 12.0974 10.3196 11.5346 10.6667 11.1874Z" fill="#1E6ECF"></path>
</symbol><symbol id="edit" viewBox="0 0 20 20" fill="none" xmlns="http://www.w3.org/2000/svg">
<path d="M6.37492 10.6249L16.6249 0.374929C17.0154 -0.0156012 17.6486 -0.0156012 18.0391 0.374929L19.6249 1.96072C20.0154 2.35124 20.0154 2.98441 19.6249 3.37493L9.37493 13.6249C9.18743 13.8124 8.93303 13.9178 8.66783 13.9178H6.58203C6.30589 13.9178 6.08203 13.6939 6.08203 13.4178V11.332C6.08203 11.0668 6.18739 10.8124 6.37492 10.6249Z" fill="#515153"></path>
<path d="M8.08203 1.91782C8.08203 2.47011 7.63432 2.91783 7.08203 2.91783H2.08203V17.9178H17.082V12.9178C17.082 12.3655 17.5297 11.9178 18.082 11.9178C18.6343 11.9178 19.082 12.3655 19.082 12.9178V17.9178C19.082 19.0224 18.1866 19.9178 17.082 19.9178H2.08203C0.977461 19.9178 0.0820312 19.0224 0.0820312 17.9178V2.91783C0.0820312 1.81325 0.977461 0.917816 2.08203 0.917816H7.08203C7.63432 0.917816 8.08203 1.36554 8.08203 1.91782Z" fill="#515153"></path>
</symbol><symbol id="document" viewBox="0 0 20 24" fill="none" xmlns="http://www.w3.org/2000/svg">
<path fill-rule="evenodd" clip-rule="evenodd" d="M2.5 0C1.11929 0 0 1.09047 0 2.43563V22.7731C0 23.8724 1.37698 24.409 2.15518 23.613L4.2399 21.4804C4.67427 21.036 5.38011 20.976 5.887 21.3401L9.25813 23.7623C9.69925 24.0792 10.3007 24.0792 10.7419 23.7623L14.113 21.3401C14.6199 20.976 15.3258 21.036 15.7601 21.4804L17.8449 23.613C18.623 24.409 20 23.8724 20 22.7731V2.43563C20 1.09047 18.8808 0 17.5 0H2.5ZM14.375 8.52469C15.0654 8.52469 15.625 7.97947 15.625 7.30688C15.625 6.63431 15.0654 6.08907 14.375 6.08907H5.625C4.93465 6.08907 4.375 6.63431 4.375 7.30688C4.375 7.97947 4.93465 8.52469 5.625 8.52469H14.375ZM13.125 12.787C13.125 13.4596 12.5654 14.0049 11.875 14.0049H5.625C4.93465 14.0049 4.375 13.4596 4.375 12.787C4.375 12.1144 4.93465 11.5692 5.625 11.5692H11.875C12.5654 11.5692 13.125 12.1144 13.125 12.787Z" fill="#515153"></path>
</symbol><symbol id="chart" viewBox="0 0 24 24" fill="none" xmlns="http://www.w3.org/2000/svg">
<path d="M3 7C3 6.44772 3.44772 6 4 6H20C20.5523 6 21 6.44772 21 7C21 7.55229 20.5523 8 20 8H4C3.44772 8 3 7.55229 3 7Z" fill="#A9A9A9"></path>
<path d="M4 11C3.44772 11 3 11.4477 3 12C3 12.5522 3.44772 13 4 13H20C20.5523 13 21 12.5522 21 12C21 11.4477 20.5523 11 20 11H4Z" fill="#A9A9A9"></path>
<path d="M3 17C3 16.4477 3.44772 16 4 16H20C20.5523 16 21 16.4477 21 17C21 17.5523 20.5523 18 20 18H4C3.44772 18 3 17.5523 3 17Z" fill="#A9A9A9"></path>
</symbol><symbol id="bell" viewBox="0 0 16 20" fill="none" xmlns="http://www.w3.org/2000/svg">
<path fill-rule="evenodd" clip-rule="evenodd" d="M8 0.5C4.56356 0.5 1.77778 3.33553 1.77778 6.83333V9.51224C1.77778 10.6935 1.31676 11.8264 0.496124 12.6617C0.178462 12.985 0 13.4235 0 13.8808V14.6707C0 15.3391 0.532364 15.881 1.18908 15.881H4.50044C4.50044 16.2108 4.50708 16.9282 4.88458 17.6258C5.48708 18.7392 6.65502 19.5 8 19.5C9.34498 19.5 10.5129 18.7392 11.1154 17.6258C11.4929 16.9282 11.4996 16.2108 11.4996 15.881H14.8109C15.4676 15.881 16 15.3391 16 14.6707V13.8808C16 13.4235 15.8215 12.985 15.5039 12.6617C14.6833 11.8264 14.2222 10.6935 14.2222 9.51224V6.83333C14.2222 3.33553 11.4364 0.5 8 0.5ZM9.72178 15.881C9.72178 16.1813 9.70062 16.4897 9.55822 16.7528C9.25662 17.3101 8.67476 17.6882 8.00587 17.6905H8H7.99404C7.32524 17.6882 6.74338 17.3101 6.44178 16.7528C6.29938 16.4897 6.27822 16.1813 6.27822 15.881H9.72178Z" fill="#1E6ECF"></path>
</symbol><symbol id="arrow_right" viewBox="0 0 10 16" fill="none" xmlns="http://www.w3.org/2000/svg">
<path d="M2 14L8 8L2 2" stroke="#777777" stroke-width="2.5" stroke-linecap="round" stroke-linejoin="round"></path>
</symbol><symbol id="alert" viewBox="0 0 22 22" fill="none" xmlns="http://www.w3.org/2000/svg">
<path fill-rule="evenodd" clip-rule="evenodd" d="M20.1668 10.9999C20.1668 16.0625 16.0627 20.1666 11.0002 20.1666C5.93755 20.1666 1.8335 16.0625 1.8335 10.9999C1.8335 5.93731 5.93755 1.83325 11.0002 1.83325C16.0627 1.83325 20.1668 5.93731 20.1668 10.9999ZM11.506 6.53742C11.7644 6.53742 11.9716 6.7509 11.9641 7.00919L11.8196 11.9359C11.8123 12.1837 11.6094 12.3809 11.3615 12.3809H10.6429C10.3952 12.3809 10.1922 12.184 10.1848 11.9363L10.0366 7.00953C10.0288 6.75112 10.2362 6.53742 10.4947 6.53742H11.506ZM11.0024 15.6516C10.7123 15.6516 10.4633 15.5492 10.2553 15.3441C10.0473 15.136 9.94471 14.887 9.94765 14.597C9.94471 14.3099 10.0473 14.0638 10.2553 13.8587C10.4633 13.6537 10.7123 13.5511 11.0024 13.5511C11.2807 13.5511 11.5253 13.6537 11.7362 13.8587C11.9472 14.0638 12.0541 14.3099 12.0571 14.597C12.0541 14.7903 12.0028 14.9676 11.9033 15.1288C11.8066 15.2869 11.6791 15.4144 11.5209 15.511C11.3627 15.6048 11.1898 15.6516 11.0024 15.6516Z" fill="#F04848"></path>
</symbol></svg>