<svg xmlns="http://www.w3.org/2000/svg"><symbol id="x" viewBox="0 0 18 18" fill="currentColor" xmlns="http://www.w3.org/2000/svg"><path d="m6.907 5.845 2.095 2.094 2.094-2.094 1.06 1.06L10.063 9l2.095 2.095-1.06 1.06-2.095-2.094-2.095 2.094-1.06-1.06L7.94 9 5.846 6.905z"></path><path fill-rule="evenodd" d="M16.502 9a7.5 7.5 0 1 1-15 0 7.5 7.5 0 0 1 15 0m-1.5 0a6 6 0 1 1-12 0 6 6 0 0 1 12 0" clip-rule="evenodd"></path></symbol><symbol id="upload" viewBox="0 0 24 24" fill="currentColor" xmlns="http://www.w3.org/2000/svg"><path d="m16.781 7.579-3.447-3.266V16.42c0 .698-.598 1.263-1.334 1.263s-1.333-.565-1.333-1.263V4.313L7.219 7.579a1.386 1.386 0 0 1-1.886 0 1.214 1.214 0 0 1 0-1.786L11.057.37c.25-.237.59-.37.943-.37.354 0 .693.133.943.37l5.724 5.423c.52.493.52 1.293 0 1.786a1.386 1.386 0 0 1-1.886 0"></path><path d="M1.333 15.158c.737 0 1.334.565 1.334 1.263v5.053h18.666V16.42c0-.698.597-1.263 1.334-1.263.736 0 1.333.565 1.333 1.263v5.053C24 22.869 22.806 24 21.333 24H2.667C1.194 24 0 22.869 0 21.474V16.42c0-.698.597-1.263 1.333-1.263"></path></symbol><symbol id="spinner" viewBox="0 0 20 21" fill="currentColor" xmlns="http://www.w3.org/2000/svg"><path stroke="currentColor" stroke-width="4" d="M9.303 18.47A8 8 0 1 0 2.17 8.859"></path></symbol><symbol id="service" viewBox="0 0 24 24" fill="currentColor" xmlns="http://www.w3.org/2000/svg"><path d="M13.935 9.673a.5.5 0 0 0 .392.392l1.91.383a.5.5 0 0 0 .452-.137l4.046-4.046c.24-.24.642-.176.767.138a7 7 0 0 1-9.384 8.979L5.8 21.7c-.192.192-.453.3-.725.3A3.075 3.075 0 0 1 2 18.925c0-.272.108-.533.3-.725l6.32-6.32a7 7 0 0 1 8.979-9.384c.313.126.376.529.137.768L13.69 7.31a.5.5 0 0 0-.136.451z"></path></symbol><symbol id="search" viewBox="0 0 18 18" fill="currentColor" xmlns="http://www.w3.org/2000/svg"><path fill-rule="evenodd" stroke="currentColor" stroke-width=".2" d="M7.702 1a6.702 6.702 0 1 0 4.149 11.966l3.803 3.803a.789.789 0 0 0 1.115-1.115l-3.803-3.803A6.702 6.702 0 0 0 7.702 1ZM2.577 7.702a5.125 5.125 0 1 1 10.25 0 5.125 5.125 0 0 1-10.25 0Z" clip-rule="evenodd"></path></symbol><symbol id="redirect" viewBox="0 0 16 16" fill="currentColor" xmlns="http://www.w3.org/2000/svg"><path d="M7.25 3.5a.75.75 0 0 0-.75-.75H2a1.5 1.5 0 0 0-1.5 1.5V14A1.5 1.5 0 0 0 2 15.5h9.75a1.5 1.5 0 0 0 1.5-1.5V9.5a.75.75 0 0 0-1.5 0V14H2V4.25h4.5a.75.75 0 0 0 .75-.75"></path><path fill-rule="evenodd" d="M12.94 2h-2.69a.75.75 0 0 1 0-1.5h4.5a.75.75 0 0 1 .75.75v4.5a.75.75 0 1 1-1.5 0V3.06l-7.19 7.19a.75.75 0 1 1-1.06-1.06z" clip-rule="evenodd"></path></symbol><symbol id="product" viewBox="0 0 19 19" fill="currentColor" xmlns="http://www.w3.org/2000/svg"><path d="M10.06 6.06a1.5 1.5 0 0 1 0-2.12l2.88-2.88a1.5 1.5 0 0 1 2.12 0l2.88 2.88a1.5 1.5 0 0 1 0 2.12l-2.88 2.88a1.5 1.5 0 0 1-2.12 0zM2 1a2 2 0 0 0-2 2v4a2 2 0 0 0 2 2h4a2 2 0 0 0 2-2V3a2 2 0 0 0-2-2zM0 13a2 2 0 0 1 2-2h4a2 2 0 0 1 2 2v4a2 2 0 0 1-2 2H2a2 2 0 0 1-2-2zm10 0a2 2 0 0 1 2-2h4a2 2 0 0 1 2 2v4a2 2 0 0 1-2 2h-4a2 2 0 0 1-2-2z"></path></symbol><symbol id="print" viewBox="0 0 24 24" fill="currentColor" xmlns="http://www.w3.org/2000/svg"><path fill-rule="evenodd" d="M6 0a1.2 1.2 0 0 0-1.2 1.2V6H3.6A3.6 3.6 0 0 0 0 9.6V18a2.4 2.4 0 0 0 2.4 2.4h2.4v2.4A1.2 1.2 0 0 0 6 24h12a1.2 1.2 0 0 0 1.2-1.2v-2.4h2.4A2.4 2.4 0 0 0 24 18V9.6A3.6 3.6 0 0 0 20.4 6h-1.2V1.2A1.2 1.2 0 0 0 18 0zm10.8 6V2.4H7.2V6zm0 11.4H7.2v4.2h9.6zm1.8-4.5a1.5 1.5 0 1 0 0-3 1.5 1.5 0 0 0 0 3" clip-rule="evenodd"></path></symbol><symbol id="plus" viewBox="0 0 20 20" fill="currentColor" xmlns="http://www.w3.org/2000/svg"><path stroke="currentColor" stroke-linecap="round" stroke-width="2.5" d="M18 9.996H2M9.996 2v16"></path></symbol><symbol id="order" viewBox="0 0 24 24" fill="currentColor" xmlns="http://www.w3.org/2000/svg"><path fill-rule="evenodd" d="M20 7.828a2 2 0 0 0-.586-1.414l-3.828-3.828A2 2 0 0 0 14.172 2H6a2 2 0 0 0-2 2v16a2 2 0 0 0 2 2h12a2 2 0 0 0 2-2zM15.5 11a1 1 0 1 0 0-2h-7a1 1 0 0 0 0 2zm-7 4.5a1 1 0 1 1 0-2h5a1 1 0 1 1 0 2z" clip-rule="evenodd"></path></symbol><symbol id="message" viewBox="0 0 18 14" fill="currentColor" xmlns="http://www.w3.org/2000/svg"><path d="M8.1 8.319 0 3.772v8.478C0 13.216.806 14 1.8 14h14.4c.994 0 1.8-.784 1.8-1.75V3.772L9.9 8.32a1.85 1.85 0 0 1-1.8 0"></path><path d="M9 6.803 0 1.751V1.75C0 .784.806 0 1.8 0h14.4c.994 0 1.8.784 1.8 1.75v.001z"></path></symbol><symbol id="logo" viewBox="0 0 500 200" xmlns="http://www.w3.org/2000/svg"><style>.st0{fill:#f5f6f8}</style><path d="M330.4 52h122.3v35.3h-35.5v61.2h-41.6c0-.9-.1-1.8-.1-2.7V90.1c0-2.1-.6-2.8-2.7-2.7-8.2.1-16.5 0-24.7.1-1.6 0-2.4-.5-3.1-2-4.6-10.7-9.4-21.3-14-31.9-.2-.6-.4-1-.6-1.6m-211.2 77.6c-11.9 8.1-31.2 9.1-46.2-1.9-14.8-10.9-20.7-30.9-14.2-48.1 7.1-18.5 25-27.9 41.5-26.7 21.6 1.5 34.9 17.8 37.6 31.9-4.2-8.7-10.7-15.1-19.9-18.3-9.3-3.2-18.3-2.4-27 2.1-14.7 7.7-21.3 25.6-15.6 41.2 5.2 13.9 22.2 27.1 43.8 19.8" class="st0"></path><path d="M122.4 98.5c0 8-6.4 14.4-14.4 14.5s-14.5-6.6-14.5-14.6c0-8.1 6.5-14.5 14.6-14.4 8 .1 14.4 6.6 14.3 14.5m50.5 28.2c-1.7 7.6-3.2 14.6-4.8 21.7.7.1 1 .2 1.3.2h36.5c1.4 0 1.8-.6 2.1-1.8 3.2-11.5 6.3-23 9.8-34.4 2.3-7.4 5.1-14.6 7.7-22h.8c.4.9.8 1.8 1.1 2.7 6.7 17.4 12.2 35.2 16.5 53.3.4 1.7 1 2.2 2.7 2.2 11.6-.1 23.3 0 34.9 0 .7 0 1.4-.1 2.4-.1-1-4.4-1.9-8.5-2.8-12.7-.2-1.1-.4-2.4-.1-3.4 4.4-13.5 8.8-26.9 13.3-40.3.2-.6.6-1.1 1.1-2.1.6 1.4.9 2.2 1.3 3 6.8 17.5 12.2 35.4 16.6 53.6.4 1.6 1 2.1 2.6 2.1 11.8-.1 23.6 0 35.4 0 .6 0 1.2-.1 1.9-.2-.1-.5-.1-.9-.2-1.3-2.3-9.3-4.2-18.6-6.8-27.8-6.7-23-15.9-45-28.4-65.5-.9-1.5-1.9-2.1-3.7-2.1q-18.75.15-37.5 0c-1.9 0-3 .6-3.8 2.2-3.7 6.9-7.5 13.8-11.2 20.7-.3.5-.6.9-1.1 1.6-.5-1.1-.9-1.9-1.3-2.6-3.6-6.6-7.3-13.2-10.8-19.9-.8-1.5-1.9-2.1-3.7-2.1-12.3.1-24.7.1-37 0-2.2 0-3.4.7-4.6 2.6-9.7 16.1-17.3 33.2-23.5 50.9-.7 1.9-1.4 3.7-2.2 5.5z" class="st0"></path><path d="M178 95.6c-2.2-28.1-20.7-47.3-37.8-55.3-23.5-11-48.7-6.1-62.2 3.2 29.7-10.8 59 5.1 69 30.5 10.1 25.5-.3 54.8-25.6 67.8-13.8 7.1-28.2 8-42.8 2.7S53.8 129.1 47.3 115c5.3 23.6 23.1 43.5 47.8 48.9 34.2 7.6 59.4-5.5 76.8-35.5 4-8.6 6.3-18.1 6.3-28.2 0-1.5-.1-3.1-.2-4.6" style="fill:#0083ce"></path></symbol><symbol id="logo-dark" viewBox="0 0 500 200" xmlns="http://www.w3.org/2000/svg"><style>.st0{fill:#3f3939}</style><path d="M330.4 52h122.3v35.3h-35.5v61.2h-41.6c0-.9-.1-1.8-.1-2.7V90.1c0-2.1-.6-2.8-2.7-2.7-8.2.1-16.5 0-24.7.1-1.6 0-2.4-.5-3.1-2-4.6-10.7-9.4-21.3-14-31.9-.2-.6-.4-1-.6-1.6m-211.2 77.6c-11.9 8.1-31.2 9.1-46.2-1.9-14.8-10.9-20.7-30.9-14.2-48.1 7.1-18.5 25-27.9 41.5-26.7 21.6 1.5 34.9 17.8 37.6 31.9-4.2-8.7-10.7-15.1-19.9-18.3-9.3-3.2-18.3-2.4-27 2.1-14.7 7.7-21.3 25.6-15.6 41.2 5.2 13.9 22.2 27.1 43.8 19.8" class="st0"></path><path d="M122.4 98.5c0 8-6.4 14.4-14.4 14.5s-14.5-6.6-14.5-14.6c0-8.1 6.5-14.5 14.6-14.4 8 .1 14.4 6.6 14.3 14.5m50.5 28.2c-1.7 7.6-3.2 14.6-4.8 21.7.7.1 1 .2 1.3.2h36.5c1.4 0 1.8-.6 2.1-1.8 3.2-11.5 6.3-23 9.8-34.4 2.3-7.4 5.1-14.6 7.7-22h.8c.4.9.8 1.8 1.1 2.7 6.7 17.4 12.2 35.2 16.5 53.3.4 1.7 1 2.2 2.7 2.2 11.6-.1 23.3 0 34.9 0 .7 0 1.4-.1 2.4-.1-1-4.4-1.9-8.5-2.8-12.7-.2-1.1-.4-2.4-.1-3.4 4.4-13.5 8.8-26.9 13.3-40.3.2-.6.6-1.1 1.1-2.1.6 1.4.9 2.2 1.3 3 6.8 17.5 12.2 35.4 16.6 53.6.4 1.6 1 2.1 2.6 2.1 11.8-.1 23.6 0 35.4 0 .6 0 1.2-.1 1.9-.2-.1-.5-.1-.9-.2-1.3-2.3-9.3-4.2-18.6-6.8-27.8-6.7-23-15.9-45-28.4-65.5-.9-1.5-1.9-2.1-3.7-2.1q-18.75.15-37.5 0c-1.9 0-3 .6-3.8 2.2-3.7 6.9-7.5 13.8-11.2 20.7-.3.5-.6.9-1.1 1.6-.5-1.1-.9-1.9-1.3-2.6-3.6-6.6-7.3-13.2-10.8-19.9-.8-1.5-1.9-2.1-3.7-2.1-12.3.1-24.7.1-37 0-2.2 0-3.4.7-4.6 2.6-9.7 16.1-17.3 33.2-23.5 50.9-.7 1.9-1.4 3.7-2.2 5.5z" class="st0"></path><path d="M178 95.6c-2.2-28.1-20.7-47.3-37.8-55.3-23.5-11-48.7-6.1-62.2 3.2 29.7-10.8 59 5.1 69 30.5 10.1 25.5-.3 54.8-25.6 67.8-13.8 7.1-28.2 8-42.8 2.7S53.8 129.1 47.3 115c5.3 23.6 23.1 43.5 47.8 48.9 34.2 7.6 59.4-5.5 76.8-35.5 4-8.6 6.3-18.1 6.3-28.2 0-1.5-.1-3.1-.2-4.6" style="fill:#0083ce"></path></symbol><symbol id="label" viewBox="0 0 24 24" fill="currentColor" xmlns="http://www.w3.org/2000/svg"><path fill-rule="evenodd" d="M12.595.697A2.38 2.38 0 0 0 10.912 0H2.38A2.38 2.38 0 0 0 0 2.38v8.532c0 .631.25 1.237.697 1.683l10.708 10.708c.93.93 2.436.93 3.365 0l8.533-8.533a2.38 2.38 0 0 0 0-3.365zM8.329 6.544a1.785 1.785 0 1 1-3.57 0 1.785 1.785 0 0 1 3.57 0" clip-rule="evenodd"></path></symbol><symbol id="hamberger" viewBox="0 0 25 24" fill="currentColor" xmlns="http://www.w3.org/2000/svg"><path d="M3.917 7a1 1 0 0 1 1-1h16a1 1 0 1 1 0 2h-16a1 1 0 0 1-1-1m1 4a1 1 0 1 0 0 2h16a1 1 0 0 0 0-2zm-1 6a1 1 0 0 1 1-1h16a1 1 0 1 1 0 2h-16a1 1 0 0 1-1-1"></path></symbol><symbol id="graph" viewBox="0 0 20 20" fill="currentColor" xmlns="http://www.w3.org/2000/svg"><path fill-rule="evenodd" d="M0 2.222C0 .995.995 0 2.222 0h15.556C19.005 0 20 .995 20 2.222v15.556A2.22 2.22 0 0 1 17.778 20H2.222A2.22 2.22 0 0 1 0 17.778zm10 14.445a1.11 1.11 0 0 1-1.111-1.111v-10a1.111 1.111 0 1 1 2.222 0v10A1.11 1.11 0 0 1 10 16.666m-6.111-1.111a1.111 1.111 0 0 0 2.222 0V8.889a1.111 1.111 0 1 0-2.222 0zM15 16.666a1.11 1.11 0 0 1-1.111-1.11V11.11a1.111 1.111 0 1 1 2.222 0v4.445A1.11 1.11 0 0 1 15 16.665" clip-rule="evenodd"></path></symbol><symbol id="eye" viewBox="0 0 22 16" fill="currentColor" xmlns="http://www.w3.org/2000/svg"><path fill-rule="evenodd" d="M15 8a4 4 0 1 1-8 0 4 4 0 0 1 8 0m-2 0a2 2 0 1 1-4 0 2 2 0 0 1 4 0" clip-rule="evenodd"></path><path fill-rule="evenodd" d="M21.606 8.778a1.6 1.6 0 0 0 0-1.556C20.5 5.212 17.053 0 11 0S1.5 5.211.394 7.222a1.6 1.6 0 0 0 0 1.556C1.5 10.788 4.947 16 11 16s9.501-5.211 10.606-7.222M19.749 8c-.523-.919-1.495-2.388-2.916-3.645C15.33 3.025 13.407 2 11 2S6.67 3.025 5.167 4.355C3.747 5.612 2.774 7.08 2.25 8c.523.919 1.495 2.389 2.916 3.645C6.67 12.975 8.593 14 11 14s4.33-1.025 5.833-2.355C18.253 10.39 19.226 8.92 19.75 8" clip-rule="evenodd"></path></symbol><symbol id="eye-off" viewBox="0 0 20 19" fill="currentColor" xmlns="http://www.w3.org/2000/svg"><path fill-rule="evenodd" d="M2.13.75A.917.917 0 1 0 .833 2.046L3.246 4.46C1.744 5.842.764 7.402.278 8.287a1.47 1.47 0 0 0 0 1.426c1.013 1.843 4.173 6.62 9.722 6.62a9.24 9.24 0 0 0 4.146-.974l2.807 2.808a.917.917 0 1 0 1.297-1.297l-2.498-2.498zM1.98 9c.466-.818 1.32-2.114 2.563-3.243L6.548 7.76a3.667 3.667 0 0 0 4.691 4.691l1.52 1.52c-.83.33-1.748.528-2.76.528-2.206 0-3.969-.94-5.346-2.159C3.35 11.19 2.459 9.842 1.98 9" clip-rule="evenodd"></path><path d="m13.611 9.639-4.25-4.25a3.667 3.667 0 0 1 4.25 4.25"></path><path d="M15.845 11.873A13.8 13.8 0 0 0 18.02 9c-.48-.842-1.37-2.19-2.673-3.341-1.378-1.22-3.14-2.16-5.347-2.16-.788 0-1.52.12-2.198.33L6.375 2.403A9.2 9.2 0 0 1 10 1.667c5.549 0 8.71 4.777 9.722 6.62a1.47 1.47 0 0 1 0 1.426 15.7 15.7 0 0 1-2.58 3.456z"></path></symbol><symbol id="exit" viewBox="0 0 16 16" fill="currentColor" xmlns="http://www.w3.org/2000/svg"><path d="M8 .889a.89.89 0 0 1-.889.889H1.778v12.444H7.11a.889.889 0 0 1 0 1.778H1.778A1.78 1.78 0 0 1 0 14.222V1.778C0 .796.796 0 1.778 0H7.11A.89.89 0 0 1 8 .889"></path><path d="m10.667 11.187 2.298-2.298H5.333a.889.889 0 0 1 0-1.778h7.632l-2.298-2.298a.889.889 0 1 1 1.257-1.257l3.816 3.816a.89.89 0 0 1 0 1.257l-3.816 3.816a.889.889 0 0 1-1.257-1.258"></path></symbol><symbol id="edit" viewBox="0 0 20 20" fill="currentColor" xmlns="http://www.w3.org/2000/svg"><path d="M6.375 10.625 16.625.375a1 1 0 0 1 1.414 0l1.586 1.586a1 1 0 0 1 0 1.414l-10.25 10.25a1 1 0 0 1-.707.293H6.582a.5.5 0 0 1-.5-.5v-2.086a1 1 0 0 1 .293-.707"></path><path d="M8.082 1.918a1 1 0 0 1-1 1h-5v15h15v-5a1 1 0 1 1 2 0v5a2 2 0 0 1-2 2h-15a2 2 0 0 1-2-2v-15a2 2 0 0 1 2-2h5a1 1 0 0 1 1 1"></path></symbol><symbol id="document" viewBox="0 0 20 24" fill="currentColor" xmlns="http://www.w3.org/2000/svg"><path fill-rule="evenodd" d="M2.5 0C1.12 0 0 1.09 0 2.436v20.337c0 1.1 1.377 1.636 2.155.84L4.24 21.48a1.274 1.274 0 0 1 1.647-.14l3.371 2.422a1.28 1.28 0 0 0 1.484 0l3.371-2.422a1.274 1.274 0 0 1 1.647.14l2.085 2.133c.778.796 2.155.26 2.155-.84V2.436C20 1.09 18.88 0 17.5 0zm11.875 8.525c.69 0 1.25-.546 1.25-1.218 0-.673-.56-1.218-1.25-1.218h-8.75c-.69 0-1.25.545-1.25 1.218s.56 1.218 1.25 1.218zm-1.25 4.262c0 .673-.56 1.218-1.25 1.218h-6.25c-.69 0-1.25-.545-1.25-1.218s.56-1.218 1.25-1.218h6.25c.69 0 1.25.545 1.25 1.218" clip-rule="evenodd"></path></symbol><symbol id="chevron-down" viewBox="0 0 12 8" fill="currentColor" xmlns="http://www.w3.org/2000/svg"><path fill="currentColor" d="m1.937.62 4.065 4.064L10.067.619a1.134 1.134 0 0 1 1.603 1.603L6.804 7.09a1.134 1.134 0 0 1-1.604 0L.334 2.222A1.134 1.134 0 0 1 1.937.62"></path></symbol><symbol id="check" viewBox="0 0 16 16" fill="currentColor" xmlns="http://www.w3.org/2000/svg"><path d="M11.905 6.28 7.25 10.936l-2.78-2.78 1.06-1.061 1.72 1.72 3.595-3.595z"></path><path fill-rule="evenodd" d="M15.5 8a7.5 7.5 0 1 1-15 0 7.5 7.5 0 0 1 15 0M14 8A6 6 0 1 1 2 8a6 6 0 0 1 12 0" clip-rule="evenodd"></path></symbol><symbol id="chart" viewBox="0 0 24 24" fill="currentColor" xmlns="http://www.w3.org/2000/svg"><path d="M3 7a1 1 0 0 1 1-1h16a1 1 0 1 1 0 2H4a1 1 0 0 1-1-1m1 4a1 1 0 1 0 0 2h16a1 1 0 0 0 0-2zm-1 6a1 1 0 0 1 1-1h16a1 1 0 1 1 0 2H4a1 1 0 0 1-1-1"></path></symbol><symbol id="cart" viewBox="0 0 18 18" fill="currentColor" xmlns="http://www.w3.org/2000/svg"><path d="M5.813 13.535a1.278 1.278 0 1 1-.001 2.556 1.278 1.278 0 0 1 0-2.556m7.5 0a1.278 1.278 0 1 1-.001 2.555 1.278 1.278 0 0 1 0-2.555m-9.375-12c.241 0 .453.165.511.4l.276 1.1h10.838a.53.53 0 0 1 .511.655l-1.5 6a.53.53 0 0 1-.511.4H5.438a.598.598 0 0 0 0 1.195h8.625a.528.528 0 0 1 0 1.055H5.438a1.652 1.652 0 0 1-.294-3.277L3.8 3.69l-.276-1.1H2.063a.527.527 0 0 1 0-1.055z"></path></symbol><symbol id="boxes" viewBox="0 0 22 24" fill="currentColor" xmlns="http://www.w3.org/2000/svg"><path d="M9.81 14.06v9.621l-8.325-4.81a2.38 2.38 0 0 1-1.188-2.06V8.567zM.614 6.002 11 12l4.164-2.405L4.46 3.41 1.485 5.13a2.4 2.4 0 0 0-.871.873m16.928 2.219 3.845-2.22a2.4 2.4 0 0 0-.872-.873L12.19.319a2.38 2.38 0 0 0-2.38 0L6.837 2.037zm4.162.344L12.19 14.06v9.621l8.325-4.81a2.38 2.38 0 0 0 1.189-2.06z"></path></symbol><symbol id="bell" viewBox="0 0 16 20" fill="currentColor" xmlns="http://www.w3.org/2000/svg"><path fill-rule="evenodd" d="M8 .5C4.564.5 1.778 3.336 1.778 6.833v2.68a4.5 4.5 0 0 1-1.282 3.149A1.74 1.74 0 0 0 0 13.88v.79a1.2 1.2 0 0 0 1.19 1.21H4.5c0 .33.007 1.047.385 1.745A3.55 3.55 0 0 0 8 19.5c1.345 0 2.513-.76 3.115-1.874.378-.698.385-1.415.385-1.745h3.31a1.2 1.2 0 0 0 1.19-1.21v-.79a1.74 1.74 0 0 0-.496-1.22 4.5 4.5 0 0 1-1.282-3.149V6.833C14.222 3.336 11.436.5 8 .5m1.722 15.381c0 .3-.021.609-.164.872a1.77 1.77 0 0 1-1.552.938h-.012a1.77 1.77 0 0 1-1.552-.938c-.143-.263-.164-.572-.164-.872z" clip-rule="evenodd"></path></symbol><symbol id="arrow-right" viewBox="0 0 6 8" fill="currentColor" xmlns="http://www.w3.org/2000/svg"><path stroke="currentColor" stroke-linecap="round" stroke-linejoin="round" stroke-width="1.5" d="m1.5 7 3-3-3-3"></path></symbol><symbol id="alert" viewBox="0 0 22 22" fill="currentColor" xmlns="http://www.w3.org/2000/svg"><path fill-rule="evenodd" d="M20.167 11a9.167 9.167 0 1 1-18.334 0 9.167 9.167 0 0 1 18.334 0m-8.661-4.463c.258 0 .466.214.458.472l-.144 4.927a.46.46 0 0 1-.459.445h-.718a.46.46 0 0 1-.458-.445l-.148-4.926a.46.46 0 0 1 .458-.473zm-.504 9.115q-.435 0-.747-.308a1 1 0 0 1-.307-.747 1 1 0 0 1 .307-.738q.312-.308.747-.308.418 0 .734.308a1.01 1.01 0 0 1 .167 1.27 1.14 1.14 0 0 1-.382.382 1 1 0 0 1-.519.14" clip-rule="evenodd"></path></symbol><symbol id="add-folder" viewBox="0 0 24 20" fill="currentColor" xmlns="http://www.w3.org/2000/svg"><path fill-rule="evenodd" d="M24 17.2a2.4 2.4 0 0 1-2.4 2.4H2.4A2.4 2.4 0 0 1 0 17.2V2.8A2.4 2.4 0 0 1 2.4.4h6.206a2.4 2.4 0 0 1 1.697.703L12 2.8h9.6A2.4 2.4 0 0 1 24 5.2zm-13.2-3a1.2 1.2 0 1 0 2.4 0v-1.8H15a1.2 1.2 0 1 0 0-2.4h-1.8V8.2a1.2 1.2 0 1 0-2.4 0V10H9a1.2 1.2 0 1 0 0 2.4h1.8z" clip-rule="evenodd"></path></symbol></svg>